<svg width="760" height="760" viewBox="0 0 760 760" fill="none" xmlns="http://www.w3.org/2000/svg">
<path d="M680 680H637.024L594.457 626.588L552.094 680H511.574L572.15 605.223L516.076 536.089H559.053L595.071 583.051L632.726 536.089H673.042L617.582 603.812L680 680Z" fill="#EB7D1A"/>
<path d="M375.43 536.089H408.583L477.345 680H439.894L425.569 647.953H356.807L342.89 680H307.077L375.43 536.089ZM414.927 621.75L391.392 567.935L367.858 621.75H414.927Z" fill="#EB7D1A"/>
<path d="M80 536.089H121.544L171.273 641.906L220.798 536.089H261.319V680H227.756V584.865L183.962 680H156.743L112.948 585.067V680H80V536.089Z" fill="#EB7D1A"/>
<path d="M355.034 450.849L253.626 490.701H605.537L679.164 450.849H355.034Z" fill="#EB7D1A" fill-opacity="0.6"/>
<path d="M337.96 180.121L329.735 188.406L365.653 224.589L373.794 216.388C381.179 208.949 380.591 201.425 374.297 195.084L359.108 179.783C352.73 173.357 345.261 172.766 337.96 180.121Z" fill="#EB7D1A"/>
<path d="M281.645 236.851L288.191 230.257C294.317 224.085 299.94 223.832 304.136 228.059L305.898 229.834C310.01 233.976 309.758 239.641 303.632 245.812L297.087 252.406L281.645 236.851Z" fill="#EB7D1A"/>
<path fill-rule="evenodd" clip-rule="evenodd" d="M193.187 212.841L325.76 80H611.635L337.143 355.646L193.187 212.841ZM408.311 158.452L428.368 138.247L416.955 126.75L396.898 146.955L383.89 133.851L408.143 109.419L396.73 97.9217L359.386 135.542L418.13 194.72L431.221 181.531L408.311 158.452ZM363.975 249.274L305.231 190.096L327.554 167.609C341.904 153.152 358.436 152.053 371.947 165.664L388.312 182.15C401.907 195.845 399.893 213.091 386.633 226.448L363.975 249.274ZM308.5 263.903L316.304 256.041C328.641 243.614 331.242 228.312 319.913 216.899L316.976 213.941C305.646 202.528 291.128 204.303 277.785 217.745L257.14 238.542L315.885 297.719L328.976 284.531L308.5 263.903Z" fill="#EB7D1A"/>
<path d="M166.813 240.517L308.571 382.214L276.703 414.317H209.938C207.652 414.317 205.456 415.214 203.816 416.818L169.011 450.849H357.233L255.824 490.701H80V454.448C80 452.14 80.8943 449.923 82.4926 448.27L158.793 369.329C160.411 367.655 161.307 365.405 161.285 363.069L160.22 247.159L166.813 240.517Z" fill="#EB7D1A"/>
</svg>
