<svg width="184" height="183" viewBox="0 0 184 183" fill="#80471C" xmlns="http://www.w3.org/2000/svg">
<path d="M146.879 3.57349C156.613 7.44015 157.146 10.5068 148.346 13.8401C145.013 15.1735 138.213 18.5068 133.279 21.4401C107.013 37.1735 92.6127 57.7068 85.546 90.1068C79.946 116.107 69.8127 133.307 52.8794 145.84C42.746 153.173 27.6794 160.64 20.0794 161.84C14.8794 162.64 14.0794 162.373 10.0794 158.107C3.81268 151.307 1.01268 142.507 0.212684 127.04C-0.32065 116.507 0.07935 111.307 2.21268 102.373C13.146 56.9068 54.2127 15.0401 99.946 3.04015C115.946 -1.22652 134.746 -0.959847 146.879 3.57349ZM173.546 25.0401C180.213 32.9068 183.013 42.9068 183.013 59.7068C183.013 78.3735 180.879 87.0402 171.813 105.707C157.413 135.04 132.746 159.307 103.413 173.04C87.2794 180.64 77.4127 182.907 61.146 182.907C49.946 183.04 45.4127 182.373 38.0794 179.973C26.746 175.973 26.2127 173.307 36.2127 169.04C55.8127 160.773 75.2794 144.373 84.8794 128.24C91.8127 116.64 93.946 110.64 97.946 91.8402C102.346 70.3735 108.213 59.3068 121.813 45.5735C130.613 36.6402 134.879 33.7068 146.213 27.9735C163.013 19.5735 168.479 19.0401 173.546 25.0401Z"/>
</svg>
